<svg 
 xmlns="http://www.w3.org/2000/svg"
 xmlns:xlink="http://www.w3.org/1999/xlink"
 width="194px" height="59px">
<path fill-rule="evenodd"  fill="rgb(0, 0, 1)"
 d="M193.926,13.281 L192.925,19.246 L186.449,19.246 L183.637,36.159 C183.147,39.269 184.596,39.950 186.534,39.950 C187.472,39.950 188.366,39.737 188.835,39.652 L189.176,45.680 C188.238,45.957 186.641,46.383 184.468,46.447 C178.610,46.596 174.691,43.572 175.756,37.437 L178.759,19.246 L174.137,19.246 L175.117,13.281 L179.739,13.281 L181.039,5.442 L188.750,5.442 L187.450,13.281 L193.926,13.281 ZM171.433,8.595 C168.983,8.595 167.109,6.720 167.301,4.420 C167.514,2.098 169.665,0.224 172.136,0.224 C174.586,0.224 176.418,2.098 176.226,4.420 C176.055,6.720 173.883,8.595 171.433,8.595 ZM168.706,46.000 L160.995,46.000 L166.449,13.281 L174.160,13.281 L168.706,46.000 ZM140.158,58.951 C131.787,58.951 127.718,55.266 127.016,50.686 L134.258,49.003 C134.897,50.942 136.452,53.115 141.160,53.115 C145.526,53.115 149.148,51.134 149.914,46.320 L150.894,40.121 L150.511,40.121 C148.977,42.528 145.846,45.531 140.244,45.531 C132.682,45.531 127.633,40.206 129.423,29.534 C131.191,18.777 138.114,12.855 145.675,12.855 C151.448,12.855 153.323,16.327 154.111,18.692 L154.515,18.692 L155.410,13.281 L163.015,13.281 L157.519,46.533 C156.156,54.925 148.956,58.951 140.158,58.951 ZM146.634,19.182 C141.479,19.182 138.241,23.548 137.261,29.492 C136.282,35.520 138.199,39.482 143.311,39.482 C148.210,39.482 151.725,35.733 152.747,29.492 C153.749,23.293 151.576,19.182 146.634,19.182 ZM114.273,46.682 C107.968,46.682 105.838,42.762 104.730,40.973 L104.304,40.973 L104.304,58.270 L99.277,58.270 L99.277,13.281 L104.134,13.281 L104.134,18.479 L104.730,18.479 C105.838,16.775 107.798,12.855 114.188,12.855 C122.453,12.855 128.162,19.416 128.162,29.726 C128.162,40.121 122.453,46.682 114.273,46.682 ZM113.592,17.371 C107.457,17.371 104.219,22.313 104.219,29.641 C104.219,37.053 107.542,42.166 113.592,42.166 C119.897,42.166 123.135,36.627 123.135,29.641 C123.135,22.739 119.982,17.371 113.592,17.371 ZM92.100,7.828 C90.141,7.828 88.522,6.294 88.522,4.420 C88.522,2.545 90.141,1.012 92.100,1.012 C94.060,1.012 95.679,2.545 95.679,4.420 C95.679,6.294 94.060,7.828 92.100,7.828 ZM60.635,42.166 L79.210,18.308 L79.210,17.968 L61.232,17.968 L61.232,13.281 L85.686,13.281 L85.686,17.286 L67.622,40.973 L67.622,41.314 L86.282,41.314 L86.282,46.000 L60.635,46.000 L60.635,42.166 ZM51.834,25.551 C51.834,20.417 49.001,17.371 44.336,17.371 C39.522,17.371 35.986,20.609 35.986,26.318 L35.986,46.000 L30.959,46.000 L30.959,13.281 L35.816,13.281 L35.816,18.394 L36.242,18.394 C37.775,15.071 40.843,12.855 45.785,12.855 C52.409,12.855 56.861,16.860 56.861,25.210 L56.861,46.000 L51.834,46.000 L51.834,25.551 ZM21.221,40.462 L20.880,40.462 C19.346,43.785 16.108,46.426 11.167,46.426 C5.032,46.426 0.601,42.421 0.601,34.071 L0.601,13.281 L5.628,13.281 L5.628,33.730 C5.628,38.502 8.610,41.569 12.785,41.569 C16.534,41.569 21.221,38.758 21.221,32.623 L21.221,13.281 L26.248,13.281 L26.248,46.000 L21.221,46.000 L21.221,40.462 ZM94.571,46.000 L89.544,46.000 L89.544,13.281 L94.571,13.281 L94.571,46.000 Z"/>
</svg>